PathFileType	4	(X/Y/Z)	 s09c0101.trc
DataRate	CameraRate	NumFrames	NumMarkers	Units	OrigDataRate	OrigDataStartFrame	OrigNumFrames
200	200	5	50	mm	200	251	2000
Frame#	Time	racr			lacr			c7			jug			rlel			rdr			llel			ldr			s2			lic			ric			lasi			rasi			rpsi			lpsi			rgt			lgt			rth1			rth2			rth3			rth4			rlfc			rmfc			rsh1			rsh2			rsh3			rsh4			rlmal			rmmal			rcal			rtoe			rmt5			lth1			lth2			lth4			lth3			llfc			lmfc			llmal			lmmal			lcal			lmt5			lsh1			lsh2			lsh3			lsh4			ltoe			SBIKE			LBIKE			RBIKE			
		X1	Y1	Z1	X2	Y2	Z2	X3	Y3	Z3	X4	Y4	Z4	X5	Y5	Z5	X6	Y6	Z6	X7	Y7	Z7	X8	Y8	Z8	X9	Y9	Z9	X10	Y10	Z10	X11	Y11	Z11	X12	Y12	Z12	X13	Y13	Z13	X14	Y14	Z14	X15	Y15	Z15	X16	Y16	Z16	X17	Y17	Z17	X18	Y18	Z18	X19	Y19	Z19	X20	Y20	Z20	X21	Y21	Z21	X22	Y22	Z22	X23	Y23	Z23	X24	Y24	Z24	X25	Y25	Z25	X26	Y26	Z26	X27	Y27	Z27	X28	Y28	Z28	X29	Y29	Z29	X30	Y30	Z30	X31	Y31	Z31	X32	Y32	Z32	X33	Y33	Z33	X34	Y34	Z34	X35	Y35	Z35	X36	Y36	Z36	X37	Y37	Z37	X38	Y38	Z38	X39	Y39	Z39	X40	Y40	Z40	X41	Y41	Z41	X42	Y42	Z42	X43	Y43	Z43	X44	Y44	Z44	X45	Y45	Z45	X46	Y46	Z46	X47	Y47	Z47	X48	Y48	Z48	X49	Y49	Z49	X50	Y50	Z50	
251	1.2550	479.910956	1303.412597	-90.355445	503.029293	1288.712454	-408.643549	455.127639	1327.795126	-251.151831	465.138663	1190.620536	-246.034370	514.014704	1060.426292	-3.984078	691.315002	876.367649	-52.678264	487.573100	1025.500340	-515.406326	682.843840	877.556816	-448.457409	-21.710799	1148.592339	-237.683026	119.629973	1114.651794	-380.910691	132.895852	1122.736689	-99.111181	138.826868	1046.134379	-362.333829	157.870332	1057.222793	-112.757903	18.677310	1174.812831	-181.498015	14.765722	1177.738993	-291.810083	76.462529	990.002949	-41.818507	59.638457	1004.700506	-431.268883	167.850675	884.396438	-48.662958	240.233415	836.420892	-56.998694	276.535944	755.746839	-64.157248	264.557498	856.550172	-75.101120	321.800404	666.793253	-99.379351	302.530154	654.844049	-195.129995	241.764444	601.304161	-69.187521	200.525211	522.516359	-83.574496	125.904273	476.069294	-82.939828	219.856140	509.563196	-115.939634	56.221633	404.604140	-83.609009	60.968294	414.936284	-163.519043	-33.307328	397.475026	-123.300349	213.030424	302.279028	-123.715437	129.517582	314.045614	-59.616703	169.174913	922.484992	-427.263706	251.527742	902.240917	-421.614320	270.166850	933.101989	-410.096068	316.629435	839.445943	-418.805086	391.097355	775.277699	-399.429361	411.170304	765.979482	-301.511788	352.426196	413.773913	-409.564127	367.681789	424.596125	-338.574145	283.989836	373.419145	-374.283426	454.351755	336.832282	-433.720069	377.716605	676.814899	-422.810083	392.976423	591.355797	-415.156372	362.264557	508.012967	-414.243617	418.701441	591.362819	-384.885913	543.708143	357.048194	-363.537729	-65.501446	853.498957	-238.352361	20.841941	84.668007	-441.617225	21.344125	84.000583	-43.410962	
252	1.2600	479.899521	1303.367462	-90.334156	503.007512	1288.673107	-408.640986	455.119745	1327.764392	-251.108362	465.118318	1190.613403	-245.972619	513.995216	1060.417293	-3.940366	691.469760	876.223811	-52.633979	487.565689	1025.468520	-515.389391	682.850897	877.544837	-448.487284	-21.732069	1148.611791	-237.663964	119.608512	1114.645898	-380.873845	132.905984	1122.674285	-99.084553	138.793253	1046.143292	-362.295624	157.839063	1057.224711	-112.735751	18.642528	1174.804601	-181.476068	14.739126	1177.767424	-291.782262	76.428674	990.007367	-41.816738	59.621914	1004.758715	-431.251531	167.814390	884.419403	-48.650721	240.197346	836.447919	-56.997072	276.516941	755.752610	-64.184670	264.541385	856.558244	-75.129306	321.772759	666.809634	-99.411132	302.522362	654.844033	-195.165031	241.767278	601.292164	-69.211145	200.537406	522.508287	-83.601176	125.935794	476.041030	-82.943752	219.860017	509.531358	-115.952672	56.245548	404.543824	-83.621473	60.943334	414.891739	-163.516756	-33.271472	397.422146	-123.306923	213.054130	302.138522	-123.735812	129.525841	313.978083	-59.604325	169.173996	922.562829	-427.265336	251.533356	902.343610	-421.595697	270.150636	933.241573	-410.139548	316.668260	839.559393	-418.818174	391.132474	775.433685	-399.453835	411.219357	766.078511	-301.505595	352.444917	413.873248	-409.544074	367.681789	424.728323	-338.573166	284.008182	373.554490	-374.283347	454.351288	336.923938	-433.713452	377.743241	676.924426	-422.825579	392.968861	591.473765	-415.102717	362.295235	508.142030	-414.255821	418.693028	591.598685	-384.936215	543.738333	357.148265	-363.589402	-65.490052	853.483435	-238.359049	20.852325	84.669284	-441.618894	21.348405	84.013647	-43.406802	
253	1.2650	479.891841	1303.332520	-90.292024	502.984704	1288.637209	-408.646926	455.085159	1327.766737	-251.109764	465.099183	1190.582298	-245.981244	513.969315	1060.393189	-3.901172	691.466448	876.212328	-52.623354	487.544718	1025.446841	-515.388254	682.857065	877.540442	-448.489804	-21.755924	1148.605656	-237.630889	119.591340	1114.662219	-380.845201	132.862591	1122.670534	-99.039150	138.746054	1046.143803	-362.275083	157.830913	1057.189252	-112.701688	18.637741	1174.808495	-181.461450	14.696839	1177.775167	-291.729150	76.392941	990.010336	-41.804972	59.592506	1004.809225	-431.239898	167.791247	884.425310	-48.656827	240.196246	836.475040	-57.033802	276.517898	755.779599	-64.196563	264.508595	856.578978	-75.152378	321.774926	666.796671	-99.453524	302.483293	654.832872	-195.204230	241.748148	601.276246	-69.222411	200.571064	522.457273	-83.609666	125.956926	475.993864	-82.948958	219.879778	509.519973	-115.959094	56.273311	404.492857	-83.616317	60.900654	414.825721	-163.505687	-33.232120	397.358868	-123.302271	213.049912	302.019772	-123.741623	129.556086	313.869965	-59.612085	169.182341	922.659269	-427.264831	251.526375	902.462250	-421.621592	270.116488	933.380073	-410.151781	316.677249	839.701845	-418.867143	391.162877	775.545360	-399.464793	411.270289	766.201106	-301.495144	352.464118	413.988168	-409.554388	367.715842	424.836095	-338.569384	284.144315	373.869566	-374.348273	454.350282	337.011402	-433.714383	377.775688	677.025036	-422.833147	392.992244	591.643425	-415.192261	362.292105	508.242676	-414.270711	418.726254	591.720735	-384.937538	543.735228	357.210933	-363.580305	-65.486987	853.495250	-238.353670	20.849867	84.672224	-441.617251	21.351399	84.019739	-43.394512	
254	1.2700	479.876822	1303.329222	-90.268438	502.977244	1288.602221	-408.635956	455.050632	1327.727579	-251.110707	465.080531	1190.563644	-245.964440	513.972327	1060.376770	-3.858154	691.466378	876.206916	-52.627836	487.532906	1025.434976	-515.373955	682.851346	877.535409	-448.484284	-21.755502	1148.601077	-237.613746	119.562976	1114.680473	-380.823170	132.860934	1122.660358	-98.989609	138.722176	1046.156168	-362.246334	157.825660	1057.200731	-112.658343	18.617717	1174.810583	-181.423224	14.651447	1177.802146	-291.687521	76.362846	990.008673	-41.784714	59.571811	1004.863447	-431.226253	167.777362	884.430159	-48.640285	240.175157	836.471839	-57.036117	276.509731	755.802382	-64.219068	264.493020	856.582584	-75.176579	321.750895	666.779615	-99.493109	302.442117	654.821893	-195.225297	241.763894	601.255192	-69.257951	200.552627	522.451928	-83.618440	125.965987	475.944098	-82.961880	219.891724	509.494769	-115.956639	56.295242	404.397855	-83.639336	60.860984	414.756422	-163.490165	-33.216902	397.300733	-123.300172	213.045760	301.920360	-123.754236	129.561338	313.762024	-59.609386	169.181474	922.754952	-427.260136	251.531259	902.558912	-421.621147	270.118798	933.500184	-410.153990	316.707237	839.812497	-418.887409	391.183778	775.667953	-399.486227	411.307906	766.315029	-301.503694	352.480392	414.103813	-409.550323	367.727052	424.921231	-338.604087	284.157755	373.980370	-374.337459	454.335885	337.136916	-433.725733	377.796275	677.129261	-422.843592	393.011318	591.709973	-415.179320	362.319863	508.355009	-414.268417	418.738924	591.836675	-384.942972	543.747746	357.262552	-363.584873	-65.491751	853.508841	-238.379282	20.843846	84.672392	-441.617459	21.350516	84.013275	-43.407394	
255	1.2750	479.870651	1303.308797	-90.227635	502.973493	1288.589135	-408.601434	455.042656	1327.737977	-251.067595	465.079309	1190.561788	-245.913735	513.956502	1060.371164	-3.810211	691.470005	876.212428	-52.616720	487.529936	1025.419409	-515.342385	682.858785	877.542533	-448.495919	-21.776943	1148.643038	-237.483014	119.551826	1114.704311	-380.789645	132.833812	1122.669043	-98.961071	138.688748	1046.172968	-362.223420	157.798607	1057.208651	-112.619925	18.579900	1174.827566	-181.392062	14.664488	1177.789986	-291.683119	76.327428	990.014291	-41.772807	59.549752	1004.920254	-431.208141	167.759492	884.435364	-48.619340	240.153251	836.479452	-57.052069	276.496344	755.808742	-64.222981	264.460076	856.594182	-75.195894	321.717095	666.778359	-99.527771	302.407196	654.793072	-195.263436	241.723484	601.226180	-69.275521	200.544879	522.429595	-83.632967	125.980379	475.882637	-82.972731	219.886977	509.469210	-115.974673	56.315629	404.340164	-83.625593	60.764362	414.651293	-163.464829	-33.204539	397.223424	-123.280414	213.071437	301.858311	-123.734356	129.603648	313.666543	-59.611327	169.181070	922.843174	-427.244864	251.558753	902.674138	-421.610993	270.108303	933.620527	-410.157284	316.726302	839.933764	-418.933545	391.236473	775.776222	-399.501688	411.368288	766.422115	-301.510510	352.492897	414.205101	-409.555288	367.747534	425.041265	-338.572020	284.167155	374.092794	-374.318380	454.356338	337.224007	-433.713907	377.822244	677.258276	-422.863940	393.037424	591.858256	-415.188249	362.334563	508.458648	-414.268769	418.757943	591.941585	-384.960601	543.747601	357.332980	-363.594935	-65.496204	853.489698	-238.407363	20.851780	84.661116	-441.613125	21.333404	84.005128	-43.407807	
